<mxfile host="65bd71144e" pages="3">
    <diagram name="Página-1" id="iNIUAl4sh_FxEUKdKi1O">
        <mxGraphModel dx="1638" dy="784" grid="1" gridSize="10" guides="1" tooltips="1" connect="1" arrows="1" fold="1" page="1" pageScale="1" pageWidth="1169" pageHeight="827" math="0" shadow="0">
            <root>
                <mxCell id="0"/>
                <mxCell id="1" parent="0"/>
                <mxCell id="ksLZcP1qq4xLZ_SbyI45-1" value="" style="swimlane;startSize=0;" parent="1" vertex="1">
                    <mxGeometry x="170" y="40" width="350" height="440" as="geometry"/>
                </mxCell>
                <mxCell id="ksLZcP1qq4xLZ_SbyI45-3" value="&quot;Bienvenido usuario&quot;" style="rounded=0;whiteSpace=wrap;html=1;" parent="ksLZcP1qq4xLZ_SbyI45-1" vertex="1">
                    <mxGeometry x="10" y="50" width="120" height="60" as="geometry"/>
                </mxCell>
                <mxCell id="ksLZcP1qq4xLZ_SbyI45-4" value="9846353" style="rounded=0;whiteSpace=wrap;html=1;" parent="ksLZcP1qq4xLZ_SbyI45-1" vertex="1">
                    <mxGeometry x="190" y="50" width="120" height="60" as="geometry"/>
                </mxCell>
                <mxCell id="ksLZcP1qq4xLZ_SbyI45-5" value="[1,2,3,4,5]" style="rounded=0;whiteSpace=wrap;html=1;" parent="ksLZcP1qq4xLZ_SbyI45-1" vertex="1">
                    <mxGeometry x="10" y="130" width="120" height="60" as="geometry"/>
                </mxCell>
                <mxCell id="ksLZcP1qq4xLZ_SbyI45-6" value="false" style="rounded=0;whiteSpace=wrap;html=1;" parent="ksLZcP1qq4xLZ_SbyI45-1" vertex="1">
                    <mxGeometry x="190" y="130" width="120" height="60" as="geometry"/>
                </mxCell>
                <mxCell id="ksLZcP1qq4xLZ_SbyI45-7" value="true" style="rounded=0;whiteSpace=wrap;html=1;" parent="ksLZcP1qq4xLZ_SbyI45-1" vertex="1">
                    <mxGeometry x="10" y="210" width="120" height="60" as="geometry"/>
                </mxCell>
                <mxCell id="ksLZcP1qq4xLZ_SbyI45-8" value="&quot;Lorem ipsum dolor sit amet&quot;" style="rounded=0;whiteSpace=wrap;html=1;" parent="ksLZcP1qq4xLZ_SbyI45-1" vertex="1">
                    <mxGeometry x="190" y="210" width="120" height="60" as="geometry"/>
                </mxCell>
                <mxCell id="ksLZcP1qq4xLZ_SbyI45-9" value="&lt;pre style=&quot;box-sizing: border-box; font-family: ui-monospace, SFMono-Regular, &amp;quot;SF Mono&amp;quot;, Menlo, Consolas, &amp;quot;Liberation Mono&amp;quot;, monospace; font-size: 13.6px; margin-top: 0px; margin-bottom: 0px; overflow-wrap: normal; padding: 16px; overflow: auto; line-height: 1.45; color: rgb(31, 35, 40); background-color: rgb(246, 248, 250); border-radius: 6px; word-break: normal; text-align: start;&quot;&gt;num1 &lt;span style=&quot;box-sizing: border-box; color: var(--color-prettylights-syntax-constant);&quot; class=&quot;pl-c1&quot;&gt;=&lt;/span&gt; &lt;span style=&quot;box-sizing: border-box; color: var(--color-prettylights-syntax-constant);&quot; class=&quot;pl-c1&quot;&gt;10&lt;/span&gt;&lt;/pre&gt;" style="rounded=0;whiteSpace=wrap;html=1;" parent="ksLZcP1qq4xLZ_SbyI45-1" vertex="1">
                    <mxGeometry x="10" y="290" width="120" height="60" as="geometry"/>
                </mxCell>
                <mxCell id="ksLZcP1qq4xLZ_SbyI45-10" value="" style="rounded=0;whiteSpace=wrap;html=1;" parent="ksLZcP1qq4xLZ_SbyI45-1" vertex="1">
                    <mxGeometry x="190" y="290" width="120" height="60" as="geometry"/>
                </mxCell>
                <mxCell id="ksLZcP1qq4xLZ_SbyI45-11" value="&lt;pre style=&quot;box-sizing: border-box; font-family: ui-monospace, SFMono-Regular, &amp;quot;SF Mono&amp;quot;, Menlo, Consolas, &amp;quot;Liberation Mono&amp;quot;, monospace; font-size: 13.6px; margin-top: 0px; margin-bottom: 0px; overflow-wrap: normal; padding: 16px; overflow: auto; line-height: 1.45; color: rgb(31, 35, 40); background-color: rgb(246, 248, 250); border-radius: 6px; word-break: normal; text-align: start;&quot;&gt;suma &lt;span style=&quot;box-sizing: border-box; color: var(--color-prettylights-syntax-constant);&quot; class=&quot;pl-c1&quot;&gt;=&lt;/span&gt; 25&lt;/pre&gt;" style="rounded=0;whiteSpace=wrap;html=1;" parent="ksLZcP1qq4xLZ_SbyI45-1" vertex="1">
                    <mxGeometry x="10" y="370" width="120" height="60" as="geometry"/>
                </mxCell>
                <mxCell id="ksLZcP1qq4xLZ_SbyI45-12" value="&#10;&lt;pre style=&quot;box-sizing: border-box; font-family: ui-monospace, SFMono-Regular, &amp;quot;SF Mono&amp;quot;, Menlo, Consolas, &amp;quot;Liberation Mono&amp;quot;, monospace; font-size: 13.6px; margin-top: 0px; margin-bottom: 0px; overflow-wrap: normal; padding: 16px; overflow: auto; line-height: 1.45; color: rgb(31, 35, 40); background-color: rgb(246, 248, 250); border-radius: 6px; word-break: normal; font-style: normal; font-variant-ligatures: normal; font-variant-caps: normal; font-weight: 400; letter-spacing: normal; orphans: 2; text-align: start; text-indent: 0px; text-transform: none; widows: 2; word-spacing: 0px; -webkit-text-stroke-width: 0px; text-decoration-thickness: initial; text-decoration-style: initial; text-decoration-color: initial;&quot;&gt;&lt;span style=&quot;box-sizing: border-box;&quot; class=&quot;pl-s1&quot;&gt;num2&lt;/span&gt; &lt;span style=&quot;box-sizing: border-box; color: var(--color-prettylights-syntax-constant);&quot; class=&quot;pl-c1&quot;&gt;=&lt;/span&gt; &lt;span style=&quot;box-sizing: border-box; color: var(--color-prettylights-syntax-constant);&quot; class=&quot;pl-c1&quot;&gt;15&lt;/span&gt;&lt;/pre&gt;&#10;&#10;" style="rounded=0;whiteSpace=wrap;html=1;" parent="ksLZcP1qq4xLZ_SbyI45-1" vertex="1">
                    <mxGeometry x="190" y="370" width="120" height="60" as="geometry"/>
                </mxCell>
                <mxCell id="ksLZcP1qq4xLZ_SbyI45-13" value="0x168465d" style="text;html=1;strokeColor=none;fillColor=none;align=center;verticalAlign=middle;whiteSpace=wrap;rounded=0;" parent="ksLZcP1qq4xLZ_SbyI45-1" vertex="1">
                    <mxGeometry x="190" y="190" width="60" height="30" as="geometry"/>
                </mxCell>
                <mxCell id="ksLZcP1qq4xLZ_SbyI45-2" value="Memoria volatil o RAM" style="text;strokeColor=none;fillColor=none;align=left;verticalAlign=middle;spacingLeft=4;spacingRight=4;overflow=hidden;points=[[0,0.5],[1,0.5]];portConstraint=eastwest;rotatable=0;whiteSpace=wrap;html=1;" parent="1" vertex="1">
                    <mxGeometry x="200" y="10" width="100" height="30" as="geometry"/>
                </mxCell>
            </root>
        </mxGraphModel>
    </diagram>
    <diagram id="D4__s5ZwzGRk-siIMWK-" name="ejercicio 3">
        <mxGraphModel dx="1638" dy="784" grid="1" gridSize="10" guides="1" tooltips="1" connect="1" arrows="1" fold="1" page="1" pageScale="1" pageWidth="1169" pageHeight="827" math="0" shadow="0">
            <root>
                <mxCell id="0"/>
                <mxCell id="1" parent="0"/>
                <mxCell id="v2CUZoyTGQa1U8lx1b1y-2" value="&lt;h1&gt;&lt;span style=&quot;background-color: rgb(255, 255, 255); color: rgb(31, 35, 40); font-family: -apple-system, BlinkMacSystemFont, &amp;quot;Segoe UI&amp;quot;, &amp;quot;Noto Sans&amp;quot;, Helvetica, Arial, sans-serif, &amp;quot;Apple Color Emoji&amp;quot;, &amp;quot;Segoe UI Emoji&amp;quot;; font-size: 16px; font-weight: 400;&quot;&gt;Ejercicio de conteo regresivo: Escribe un algoritmo que tome un número como entrada y muestre todos los números en orden descendente hasta llegar a cero.&lt;/span&gt;&lt;br&gt;&lt;/h1&gt;" style="text;html=1;strokeColor=none;fillColor=none;spacing=5;spacingTop=-20;whiteSpace=wrap;overflow=hidden;rounded=0;" parent="1" vertex="1">
                    <mxGeometry x="160" y="60" width="460" height="110" as="geometry"/>
                </mxCell>
                <mxCell id="v2CUZoyTGQa1U8lx1b1y-3" value="" style="swimlane;startSize=0;" parent="1" vertex="1">
                    <mxGeometry x="90" y="190" width="890" height="200" as="geometry"/>
                </mxCell>
                <mxCell id="v2CUZoyTGQa1U8lx1b1y-4" value="&lt;font style=&quot;font-size: 16px;&quot;&gt;n = 4&lt;/font&gt;" style="rounded=0;whiteSpace=wrap;html=1;" parent="v2CUZoyTGQa1U8lx1b1y-3" vertex="1">
                    <mxGeometry x="70" y="50" width="40" height="40" as="geometry"/>
                </mxCell>
                <mxCell id="v2CUZoyTGQa1U8lx1b1y-5" value="&lt;font style=&quot;font-size: 16px;&quot;&gt;4&lt;/font&gt;" style="rounded=0;whiteSpace=wrap;html=1;" parent="v2CUZoyTGQa1U8lx1b1y-3" vertex="1">
                    <mxGeometry x="230" y="50" width="40" height="40" as="geometry"/>
                </mxCell>
                <mxCell id="v2CUZoyTGQa1U8lx1b1y-6" value="&lt;font style=&quot;font-size: 16px;&quot;&gt;3&lt;/font&gt;" style="rounded=0;whiteSpace=wrap;html=1;" parent="v2CUZoyTGQa1U8lx1b1y-3" vertex="1">
                    <mxGeometry x="310" y="50" width="40" height="40" as="geometry"/>
                </mxCell>
                <mxCell id="v2CUZoyTGQa1U8lx1b1y-7" value="&lt;font style=&quot;font-size: 16px;&quot;&gt;2&lt;/font&gt;" style="rounded=0;whiteSpace=wrap;html=1;" parent="v2CUZoyTGQa1U8lx1b1y-3" vertex="1">
                    <mxGeometry x="390" y="50" width="40" height="40" as="geometry"/>
                </mxCell>
                <mxCell id="v2CUZoyTGQa1U8lx1b1y-8" value="&lt;font style=&quot;font-size: 16px;&quot;&gt;1&lt;/font&gt;" style="rounded=0;whiteSpace=wrap;html=1;" parent="v2CUZoyTGQa1U8lx1b1y-3" vertex="1">
                    <mxGeometry x="470" y="50" width="40" height="40" as="geometry"/>
                </mxCell>
                <mxCell id="v2CUZoyTGQa1U8lx1b1y-9" value="&lt;font style=&quot;font-size: 16px;&quot;&gt;0&lt;/font&gt;" style="rounded=0;whiteSpace=wrap;html=1;" parent="v2CUZoyTGQa1U8lx1b1y-3" vertex="1">
                    <mxGeometry x="550" y="50" width="40" height="40" as="geometry"/>
                </mxCell>
                <mxCell id="v2CUZoyTGQa1U8lx1b1y-12" style="edgeStyle=orthogonalEdgeStyle;rounded=0;orthogonalLoop=1;jettySize=auto;html=1;" parent="1" source="v2CUZoyTGQa1U8lx1b1y-10" target="v2CUZoyTGQa1U8lx1b1y-11" edge="1">
                    <mxGeometry relative="1" as="geometry"/>
                </mxCell>
                <mxCell id="v2CUZoyTGQa1U8lx1b1y-10" value="Inicio" style="strokeWidth=2;html=1;shape=mxgraph.flowchart.start_2;whiteSpace=wrap;" parent="1" vertex="1">
                    <mxGeometry x="470" y="450" width="100" height="100" as="geometry"/>
                </mxCell>
                <mxCell id="v2CUZoyTGQa1U8lx1b1y-14" style="edgeStyle=orthogonalEdgeStyle;rounded=0;orthogonalLoop=1;jettySize=auto;html=1;" parent="1" source="v2CUZoyTGQa1U8lx1b1y-11" target="v2CUZoyTGQa1U8lx1b1y-13" edge="1">
                    <mxGeometry relative="1" as="geometry"/>
                </mxCell>
                <mxCell id="v2CUZoyTGQa1U8lx1b1y-11" value="n" style="shape=parallelogram;html=1;strokeWidth=2;perimeter=parallelogramPerimeter;whiteSpace=wrap;rounded=1;arcSize=12;size=0.23;" parent="1" vertex="1">
                    <mxGeometry x="470" y="600" width="100" height="60" as="geometry"/>
                </mxCell>
                <mxCell id="v2CUZoyTGQa1U8lx1b1y-16" style="edgeStyle=orthogonalEdgeStyle;rounded=0;orthogonalLoop=1;jettySize=auto;html=1;" parent="1" source="v2CUZoyTGQa1U8lx1b1y-13" target="v2CUZoyTGQa1U8lx1b1y-15" edge="1">
                    <mxGeometry relative="1" as="geometry"/>
                </mxCell>
                <mxCell id="v2CUZoyTGQa1U8lx1b1y-13" value="n" style="strokeWidth=2;html=1;shape=mxgraph.flowchart.document2;whiteSpace=wrap;size=0.25;" parent="1" vertex="1">
                    <mxGeometry x="470" y="750" width="100" height="60" as="geometry"/>
                </mxCell>
                <mxCell id="v2CUZoyTGQa1U8lx1b1y-18" value="Si" style="edgeStyle=orthogonalEdgeStyle;rounded=0;orthogonalLoop=1;jettySize=auto;html=1;" parent="1" source="v2CUZoyTGQa1U8lx1b1y-15" target="v2CUZoyTGQa1U8lx1b1y-17" edge="1">
                    <mxGeometry relative="1" as="geometry"/>
                </mxCell>
                <mxCell id="v2CUZoyTGQa1U8lx1b1y-39" value="No" style="edgeStyle=orthogonalEdgeStyle;rounded=0;orthogonalLoop=1;jettySize=auto;html=1;" parent="1" source="v2CUZoyTGQa1U8lx1b1y-15" target="v2CUZoyTGQa1U8lx1b1y-38" edge="1">
                    <mxGeometry relative="1" as="geometry"/>
                </mxCell>
                <mxCell id="v2CUZoyTGQa1U8lx1b1y-15" value="n &amp;gt; 0" style="strokeWidth=2;html=1;shape=mxgraph.flowchart.decision;whiteSpace=wrap;" parent="1" vertex="1">
                    <mxGeometry x="470" y="890" width="100" height="100" as="geometry"/>
                </mxCell>
                <mxCell id="v2CUZoyTGQa1U8lx1b1y-20" style="edgeStyle=orthogonalEdgeStyle;rounded=0;orthogonalLoop=1;jettySize=auto;html=1;" parent="1" source="v2CUZoyTGQa1U8lx1b1y-17" target="v2CUZoyTGQa1U8lx1b1y-13" edge="1">
                    <mxGeometry relative="1" as="geometry">
                        <Array as="points">
                            <mxPoint x="690" y="780"/>
                        </Array>
                    </mxGeometry>
                </mxCell>
                <mxCell id="v2CUZoyTGQa1U8lx1b1y-17" value="n = n - 1" style="rounded=1;whiteSpace=wrap;html=1;absoluteArcSize=1;arcSize=14;strokeWidth=2;" parent="1" vertex="1">
                    <mxGeometry x="640" y="890" width="100" height="100" as="geometry"/>
                </mxCell>
                <mxCell id="v2CUZoyTGQa1U8lx1b1y-38" value="Fin" style="strokeWidth=2;html=1;shape=mxgraph.flowchart.terminator;whiteSpace=wrap;" parent="1" vertex="1">
                    <mxGeometry x="280" y="910" width="100" height="60" as="geometry"/>
                </mxCell>
                <mxCell id="v2CUZoyTGQa1U8lx1b1y-45" value="" style="shape=table;startSize=0;container=1;collapsible=0;childLayout=tableLayout;" parent="1" vertex="1">
                    <mxGeometry x="232" y="600" width="180" height="280" as="geometry"/>
                </mxCell>
                <mxCell id="v2CUZoyTGQa1U8lx1b1y-46" value="" style="shape=tableRow;horizontal=0;startSize=0;swimlaneHead=0;swimlaneBody=0;strokeColor=inherit;top=0;left=0;bottom=0;right=0;collapsible=0;dropTarget=0;fillColor=none;points=[[0,0.5],[1,0.5]];portConstraint=eastwest;" parent="v2CUZoyTGQa1U8lx1b1y-45" vertex="1">
                    <mxGeometry width="180" height="40" as="geometry"/>
                </mxCell>
                <mxCell id="v2CUZoyTGQa1U8lx1b1y-48" value="n" style="shape=partialRectangle;html=1;whiteSpace=wrap;connectable=0;strokeColor=inherit;overflow=hidden;fillColor=none;top=0;left=0;bottom=0;right=0;pointerEvents=1;" parent="v2CUZoyTGQa1U8lx1b1y-46" vertex="1">
                    <mxGeometry width="60" height="40" as="geometry">
                        <mxRectangle width="60" height="40" as="alternateBounds"/>
                    </mxGeometry>
                </mxCell>
                <mxCell id="v2CUZoyTGQa1U8lx1b1y-49" value="salida" style="shape=partialRectangle;html=1;whiteSpace=wrap;connectable=0;strokeColor=inherit;overflow=hidden;fillColor=none;top=0;left=0;bottom=0;right=0;pointerEvents=1;" parent="v2CUZoyTGQa1U8lx1b1y-46" vertex="1">
                    <mxGeometry x="60" width="60" height="40" as="geometry">
                        <mxRectangle width="60" height="40" as="alternateBounds"/>
                    </mxGeometry>
                </mxCell>
                <mxCell id="v2CUZoyTGQa1U8lx1b1y-82" value="n &amp;gt;= 0" style="shape=partialRectangle;html=1;whiteSpace=wrap;connectable=0;strokeColor=inherit;overflow=hidden;fillColor=none;top=0;left=0;bottom=0;right=0;pointerEvents=1;" parent="v2CUZoyTGQa1U8lx1b1y-46" vertex="1">
                    <mxGeometry x="120" width="60" height="40" as="geometry">
                        <mxRectangle width="60" height="40" as="alternateBounds"/>
                    </mxGeometry>
                </mxCell>
                <mxCell id="v2CUZoyTGQa1U8lx1b1y-50" value="" style="shape=tableRow;horizontal=0;startSize=0;swimlaneHead=0;swimlaneBody=0;strokeColor=inherit;top=0;left=0;bottom=0;right=0;collapsible=0;dropTarget=0;fillColor=none;points=[[0,0.5],[1,0.5]];portConstraint=eastwest;" parent="v2CUZoyTGQa1U8lx1b1y-45" vertex="1">
                    <mxGeometry y="40" width="180" height="40" as="geometry"/>
                </mxCell>
                <mxCell id="v2CUZoyTGQa1U8lx1b1y-52" value="4" style="shape=partialRectangle;html=1;whiteSpace=wrap;connectable=0;strokeColor=inherit;overflow=hidden;fillColor=none;top=0;left=0;bottom=0;right=0;pointerEvents=1;" parent="v2CUZoyTGQa1U8lx1b1y-50" vertex="1">
                    <mxGeometry width="60" height="40" as="geometry">
                        <mxRectangle width="60" height="40" as="alternateBounds"/>
                    </mxGeometry>
                </mxCell>
                <mxCell id="v2CUZoyTGQa1U8lx1b1y-53" value="4" style="shape=partialRectangle;html=1;whiteSpace=wrap;connectable=0;strokeColor=inherit;overflow=hidden;fillColor=none;top=0;left=0;bottom=0;right=0;pointerEvents=1;" parent="v2CUZoyTGQa1U8lx1b1y-50" vertex="1">
                    <mxGeometry x="60" width="60" height="40" as="geometry">
                        <mxRectangle width="60" height="40" as="alternateBounds"/>
                    </mxGeometry>
                </mxCell>
                <mxCell id="v2CUZoyTGQa1U8lx1b1y-83" value="4 &amp;gt; 0 true" style="shape=partialRectangle;html=1;whiteSpace=wrap;connectable=0;strokeColor=inherit;overflow=hidden;fillColor=none;top=0;left=0;bottom=0;right=0;pointerEvents=1;" parent="v2CUZoyTGQa1U8lx1b1y-50" vertex="1">
                    <mxGeometry x="120" width="60" height="40" as="geometry">
                        <mxRectangle width="60" height="40" as="alternateBounds"/>
                    </mxGeometry>
                </mxCell>
                <mxCell id="v2CUZoyTGQa1U8lx1b1y-54" value="" style="shape=tableRow;horizontal=0;startSize=0;swimlaneHead=0;swimlaneBody=0;strokeColor=inherit;top=0;left=0;bottom=0;right=0;collapsible=0;dropTarget=0;fillColor=none;points=[[0,0.5],[1,0.5]];portConstraint=eastwest;" parent="v2CUZoyTGQa1U8lx1b1y-45" vertex="1">
                    <mxGeometry y="80" width="180" height="40" as="geometry"/>
                </mxCell>
                <mxCell id="v2CUZoyTGQa1U8lx1b1y-56" value="4-1=3" style="shape=partialRectangle;html=1;whiteSpace=wrap;connectable=0;strokeColor=inherit;overflow=hidden;fillColor=none;top=0;left=0;bottom=0;right=0;pointerEvents=1;" parent="v2CUZoyTGQa1U8lx1b1y-54" vertex="1">
                    <mxGeometry width="60" height="40" as="geometry">
                        <mxRectangle width="60" height="40" as="alternateBounds"/>
                    </mxGeometry>
                </mxCell>
                <mxCell id="v2CUZoyTGQa1U8lx1b1y-57" value="3" style="shape=partialRectangle;html=1;whiteSpace=wrap;connectable=0;strokeColor=inherit;overflow=hidden;fillColor=none;top=0;left=0;bottom=0;right=0;pointerEvents=1;" parent="v2CUZoyTGQa1U8lx1b1y-54" vertex="1">
                    <mxGeometry x="60" width="60" height="40" as="geometry">
                        <mxRectangle width="60" height="40" as="alternateBounds"/>
                    </mxGeometry>
                </mxCell>
                <mxCell id="v2CUZoyTGQa1U8lx1b1y-84" value="3 &amp;gt; 0&lt;br&gt;true" style="shape=partialRectangle;html=1;whiteSpace=wrap;connectable=0;strokeColor=inherit;overflow=hidden;fillColor=none;top=0;left=0;bottom=0;right=0;pointerEvents=1;" parent="v2CUZoyTGQa1U8lx1b1y-54" vertex="1">
                    <mxGeometry x="120" width="60" height="40" as="geometry">
                        <mxRectangle width="60" height="40" as="alternateBounds"/>
                    </mxGeometry>
                </mxCell>
                <mxCell id="v2CUZoyTGQa1U8lx1b1y-58" value="" style="shape=tableRow;horizontal=0;startSize=0;swimlaneHead=0;swimlaneBody=0;strokeColor=inherit;top=0;left=0;bottom=0;right=0;collapsible=0;dropTarget=0;fillColor=none;points=[[0,0.5],[1,0.5]];portConstraint=eastwest;" parent="v2CUZoyTGQa1U8lx1b1y-45" vertex="1">
                    <mxGeometry y="120" width="180" height="40" as="geometry"/>
                </mxCell>
                <mxCell id="v2CUZoyTGQa1U8lx1b1y-60" value="3-1=2" style="shape=partialRectangle;html=1;whiteSpace=wrap;connectable=0;strokeColor=inherit;overflow=hidden;fillColor=none;top=0;left=0;bottom=0;right=0;pointerEvents=1;" parent="v2CUZoyTGQa1U8lx1b1y-58" vertex="1">
                    <mxGeometry width="60" height="40" as="geometry">
                        <mxRectangle width="60" height="40" as="alternateBounds"/>
                    </mxGeometry>
                </mxCell>
                <mxCell id="v2CUZoyTGQa1U8lx1b1y-61" value="2" style="shape=partialRectangle;html=1;whiteSpace=wrap;connectable=0;strokeColor=inherit;overflow=hidden;fillColor=none;top=0;left=0;bottom=0;right=0;pointerEvents=1;" parent="v2CUZoyTGQa1U8lx1b1y-58" vertex="1">
                    <mxGeometry x="60" width="60" height="40" as="geometry">
                        <mxRectangle width="60" height="40" as="alternateBounds"/>
                    </mxGeometry>
                </mxCell>
                <mxCell id="v2CUZoyTGQa1U8lx1b1y-85" value="2 &amp;gt; 0&lt;br style=&quot;border-color: var(--border-color);&quot;&gt;true" style="shape=partialRectangle;html=1;whiteSpace=wrap;connectable=0;strokeColor=inherit;overflow=hidden;fillColor=none;top=0;left=0;bottom=0;right=0;pointerEvents=1;" parent="v2CUZoyTGQa1U8lx1b1y-58" vertex="1">
                    <mxGeometry x="120" width="60" height="40" as="geometry">
                        <mxRectangle width="60" height="40" as="alternateBounds"/>
                    </mxGeometry>
                </mxCell>
                <mxCell id="v2CUZoyTGQa1U8lx1b1y-62" value="" style="shape=tableRow;horizontal=0;startSize=0;swimlaneHead=0;swimlaneBody=0;strokeColor=inherit;top=0;left=0;bottom=0;right=0;collapsible=0;dropTarget=0;fillColor=none;points=[[0,0.5],[1,0.5]];portConstraint=eastwest;" parent="v2CUZoyTGQa1U8lx1b1y-45" vertex="1">
                    <mxGeometry y="160" width="180" height="40" as="geometry"/>
                </mxCell>
                <mxCell id="v2CUZoyTGQa1U8lx1b1y-64" value="2-1=1" style="shape=partialRectangle;html=1;whiteSpace=wrap;connectable=0;strokeColor=inherit;overflow=hidden;fillColor=none;top=0;left=0;bottom=0;right=0;pointerEvents=1;" parent="v2CUZoyTGQa1U8lx1b1y-62" vertex="1">
                    <mxGeometry width="60" height="40" as="geometry">
                        <mxRectangle width="60" height="40" as="alternateBounds"/>
                    </mxGeometry>
                </mxCell>
                <mxCell id="v2CUZoyTGQa1U8lx1b1y-65" value="1" style="shape=partialRectangle;html=1;whiteSpace=wrap;connectable=0;strokeColor=inherit;overflow=hidden;fillColor=none;top=0;left=0;bottom=0;right=0;pointerEvents=1;" parent="v2CUZoyTGQa1U8lx1b1y-62" vertex="1">
                    <mxGeometry x="60" width="60" height="40" as="geometry">
                        <mxRectangle width="60" height="40" as="alternateBounds"/>
                    </mxGeometry>
                </mxCell>
                <mxCell id="v2CUZoyTGQa1U8lx1b1y-86" value="1 &amp;gt; 0&lt;br style=&quot;border-color: var(--border-color);&quot;&gt;true" style="shape=partialRectangle;html=1;whiteSpace=wrap;connectable=0;strokeColor=inherit;overflow=hidden;fillColor=none;top=0;left=0;bottom=0;right=0;pointerEvents=1;" parent="v2CUZoyTGQa1U8lx1b1y-62" vertex="1">
                    <mxGeometry x="120" width="60" height="40" as="geometry">
                        <mxRectangle width="60" height="40" as="alternateBounds"/>
                    </mxGeometry>
                </mxCell>
                <mxCell id="v2CUZoyTGQa1U8lx1b1y-69" style="shape=tableRow;horizontal=0;startSize=0;swimlaneHead=0;swimlaneBody=0;strokeColor=inherit;top=0;left=0;bottom=0;right=0;collapsible=0;dropTarget=0;fillColor=none;points=[[0,0.5],[1,0.5]];portConstraint=eastwest;" parent="v2CUZoyTGQa1U8lx1b1y-45" vertex="1">
                    <mxGeometry y="200" width="180" height="40" as="geometry"/>
                </mxCell>
                <mxCell id="v2CUZoyTGQa1U8lx1b1y-70" value="1-1=0" style="shape=partialRectangle;html=1;whiteSpace=wrap;connectable=0;strokeColor=inherit;overflow=hidden;fillColor=none;top=0;left=0;bottom=0;right=0;pointerEvents=1;" parent="v2CUZoyTGQa1U8lx1b1y-69" vertex="1">
                    <mxGeometry width="60" height="40" as="geometry">
                        <mxRectangle width="60" height="40" as="alternateBounds"/>
                    </mxGeometry>
                </mxCell>
                <mxCell id="v2CUZoyTGQa1U8lx1b1y-71" value="0" style="shape=partialRectangle;html=1;whiteSpace=wrap;connectable=0;strokeColor=inherit;overflow=hidden;fillColor=none;top=0;left=0;bottom=0;right=0;pointerEvents=1;" parent="v2CUZoyTGQa1U8lx1b1y-69" vertex="1">
                    <mxGeometry x="60" width="60" height="40" as="geometry">
                        <mxRectangle width="60" height="40" as="alternateBounds"/>
                    </mxGeometry>
                </mxCell>
                <mxCell id="v2CUZoyTGQa1U8lx1b1y-87" value="0 &amp;gt; 0&lt;br style=&quot;border-color: var(--border-color);&quot;&gt;false" style="shape=partialRectangle;html=1;whiteSpace=wrap;connectable=0;strokeColor=inherit;overflow=hidden;fillColor=none;top=0;left=0;bottom=0;right=0;pointerEvents=1;" parent="v2CUZoyTGQa1U8lx1b1y-69" vertex="1">
                    <mxGeometry x="120" width="60" height="40" as="geometry">
                        <mxRectangle width="60" height="40" as="alternateBounds"/>
                    </mxGeometry>
                </mxCell>
                <mxCell id="v2CUZoyTGQa1U8lx1b1y-72" style="shape=tableRow;horizontal=0;startSize=0;swimlaneHead=0;swimlaneBody=0;strokeColor=inherit;top=0;left=0;bottom=0;right=0;collapsible=0;dropTarget=0;fillColor=none;points=[[0,0.5],[1,0.5]];portConstraint=eastwest;" parent="v2CUZoyTGQa1U8lx1b1y-45" vertex="1">
                    <mxGeometry y="240" width="180" height="40" as="geometry"/>
                </mxCell>
                <mxCell id="v2CUZoyTGQa1U8lx1b1y-73" value="" style="shape=partialRectangle;html=1;whiteSpace=wrap;connectable=0;strokeColor=inherit;overflow=hidden;fillColor=none;top=0;left=0;bottom=0;right=0;pointerEvents=1;" parent="v2CUZoyTGQa1U8lx1b1y-72" vertex="1">
                    <mxGeometry width="60" height="40" as="geometry">
                        <mxRectangle width="60" height="40" as="alternateBounds"/>
                    </mxGeometry>
                </mxCell>
                <mxCell id="v2CUZoyTGQa1U8lx1b1y-74" style="shape=partialRectangle;html=1;whiteSpace=wrap;connectable=0;strokeColor=inherit;overflow=hidden;fillColor=none;top=0;left=0;bottom=0;right=0;pointerEvents=1;" parent="v2CUZoyTGQa1U8lx1b1y-72" vertex="1">
                    <mxGeometry x="60" width="60" height="40" as="geometry">
                        <mxRectangle width="60" height="40" as="alternateBounds"/>
                    </mxGeometry>
                </mxCell>
                <mxCell id="v2CUZoyTGQa1U8lx1b1y-88" style="shape=partialRectangle;html=1;whiteSpace=wrap;connectable=0;strokeColor=inherit;overflow=hidden;fillColor=none;top=0;left=0;bottom=0;right=0;pointerEvents=1;" parent="v2CUZoyTGQa1U8lx1b1y-72" vertex="1">
                    <mxGeometry x="120" width="60" height="40" as="geometry">
                        <mxRectangle width="60" height="40" as="alternateBounds"/>
                    </mxGeometry>
                </mxCell>
            </root>
        </mxGraphModel>
    </diagram>
    <diagram id="DRoWhoHIQoffo9kGx7xy" name="ejercicio 7">
        <mxGraphModel dx="1638" dy="784" grid="1" gridSize="10" guides="1" tooltips="1" connect="1" arrows="1" fold="1" page="1" pageScale="1" pageWidth="1169" pageHeight="827" math="0" shadow="0">
            <root>
                <mxCell id="0"/>
                <mxCell id="1" parent="0"/>
                <mxCell id="YYSCi0fAd2vtNo2rT3h2-1" value="&lt;h1&gt;&lt;span style=&quot;background-color: rgb(255, 255, 255); color: rgb(31, 35, 40); font-family: -apple-system, BlinkMacSystemFont, &amp;quot;Segoe UI&amp;quot;, &amp;quot;Noto Sans&amp;quot;, Helvetica, Arial, sans-serif, &amp;quot;Apple Color Emoji&amp;quot;, &amp;quot;Segoe UI Emoji&amp;quot;; font-size: 16px; font-weight: 400;&quot;&gt;Ejercicio de ordenar una lista de números: Escribe un algoritmo que tome una lista de números como entrada y la ordene en orden ascendente.&lt;/span&gt;&lt;br&gt;&lt;/h1&gt;" style="text;html=1;strokeColor=none;fillColor=none;spacing=5;spacingTop=-20;whiteSpace=wrap;overflow=hidden;rounded=0;" parent="1" vertex="1">
                    <mxGeometry x="180" y="70" width="340" height="120" as="geometry"/>
                </mxCell>
                <mxCell id="YYSCi0fAd2vtNo2rT3h2-30" style="edgeStyle=orthogonalEdgeStyle;rounded=0;orthogonalLoop=1;jettySize=auto;html=1;" parent="1" source="YYSCi0fAd2vtNo2rT3h2-2" target="YYSCi0fAd2vtNo2rT3h2-29" edge="1">
                    <mxGeometry relative="1" as="geometry"/>
                </mxCell>
                <mxCell id="YYSCi0fAd2vtNo2rT3h2-2" value="Inicio" style="strokeWidth=2;html=1;shape=mxgraph.flowchart.start_2;whiteSpace=wrap;" parent="1" vertex="1">
                    <mxGeometry x="510" y="200" width="100" height="100" as="geometry"/>
                </mxCell>
                <mxCell id="YYSCi0fAd2vtNo2rT3h2-3" value="" style="shape=table;startSize=0;container=1;collapsible=0;childLayout=tableLayout;" parent="1" vertex="1">
                    <mxGeometry x="40" y="240" width="120" height="320" as="geometry"/>
                </mxCell>
                <mxCell id="YYSCi0fAd2vtNo2rT3h2-4" value="" style="shape=tableRow;horizontal=0;startSize=0;swimlaneHead=0;swimlaneBody=0;strokeColor=inherit;top=0;left=0;bottom=0;right=0;collapsible=0;dropTarget=0;fillColor=none;points=[[0,0.5],[1,0.5]];portConstraint=eastwest;" parent="YYSCi0fAd2vtNo2rT3h2-3" vertex="1">
                    <mxGeometry width="120" height="40" as="geometry"/>
                </mxCell>
                <mxCell id="YYSCi0fAd2vtNo2rT3h2-5" value="contador" style="shape=partialRectangle;html=1;whiteSpace=wrap;connectable=0;strokeColor=inherit;overflow=hidden;fillColor=none;top=0;left=0;bottom=0;right=0;pointerEvents=1;" parent="YYSCi0fAd2vtNo2rT3h2-4" vertex="1">
                    <mxGeometry width="60" height="40" as="geometry">
                        <mxRectangle width="60" height="40" as="alternateBounds"/>
                    </mxGeometry>
                </mxCell>
                <mxCell id="YYSCi0fAd2vtNo2rT3h2-6" value="n" style="shape=partialRectangle;html=1;whiteSpace=wrap;connectable=0;strokeColor=inherit;overflow=hidden;fillColor=none;top=0;left=0;bottom=0;right=0;pointerEvents=1;" parent="YYSCi0fAd2vtNo2rT3h2-4" vertex="1">
                    <mxGeometry x="60" width="60" height="40" as="geometry">
                        <mxRectangle width="60" height="40" as="alternateBounds"/>
                    </mxGeometry>
                </mxCell>
                <mxCell id="YYSCi0fAd2vtNo2rT3h2-7" value="" style="shape=tableRow;horizontal=0;startSize=0;swimlaneHead=0;swimlaneBody=0;strokeColor=inherit;top=0;left=0;bottom=0;right=0;collapsible=0;dropTarget=0;fillColor=none;points=[[0,0.5],[1,0.5]];portConstraint=eastwest;" parent="YYSCi0fAd2vtNo2rT3h2-3" vertex="1">
                    <mxGeometry y="40" width="120" height="40" as="geometry"/>
                </mxCell>
                <mxCell id="YYSCi0fAd2vtNo2rT3h2-8" value="1" style="shape=partialRectangle;html=1;whiteSpace=wrap;connectable=0;strokeColor=inherit;overflow=hidden;fillColor=none;top=0;left=0;bottom=0;right=0;pointerEvents=1;" parent="YYSCi0fAd2vtNo2rT3h2-7" vertex="1">
                    <mxGeometry width="60" height="40" as="geometry">
                        <mxRectangle width="60" height="40" as="alternateBounds"/>
                    </mxGeometry>
                </mxCell>
                <mxCell id="YYSCi0fAd2vtNo2rT3h2-9" value="5" style="shape=partialRectangle;html=1;whiteSpace=wrap;connectable=0;strokeColor=inherit;overflow=hidden;fillColor=none;top=0;left=0;bottom=0;right=0;pointerEvents=1;" parent="YYSCi0fAd2vtNo2rT3h2-7" vertex="1">
                    <mxGeometry x="60" width="60" height="40" as="geometry">
                        <mxRectangle width="60" height="40" as="alternateBounds"/>
                    </mxGeometry>
                </mxCell>
                <mxCell id="YYSCi0fAd2vtNo2rT3h2-10" value="" style="shape=tableRow;horizontal=0;startSize=0;swimlaneHead=0;swimlaneBody=0;strokeColor=inherit;top=0;left=0;bottom=0;right=0;collapsible=0;dropTarget=0;fillColor=none;points=[[0,0.5],[1,0.5]];portConstraint=eastwest;" parent="YYSCi0fAd2vtNo2rT3h2-3" vertex="1">
                    <mxGeometry y="80" width="120" height="40" as="geometry"/>
                </mxCell>
                <mxCell id="YYSCi0fAd2vtNo2rT3h2-11" value="2" style="shape=partialRectangle;html=1;whiteSpace=wrap;connectable=0;strokeColor=inherit;overflow=hidden;fillColor=none;top=0;left=0;bottom=0;right=0;pointerEvents=1;" parent="YYSCi0fAd2vtNo2rT3h2-10" vertex="1">
                    <mxGeometry width="60" height="40" as="geometry">
                        <mxRectangle width="60" height="40" as="alternateBounds"/>
                    </mxGeometry>
                </mxCell>
                <mxCell id="YYSCi0fAd2vtNo2rT3h2-12" value="" style="shape=partialRectangle;html=1;whiteSpace=wrap;connectable=0;strokeColor=inherit;overflow=hidden;fillColor=none;top=0;left=0;bottom=0;right=0;pointerEvents=1;" parent="YYSCi0fAd2vtNo2rT3h2-10" vertex="1">
                    <mxGeometry x="60" width="60" height="40" as="geometry">
                        <mxRectangle width="60" height="40" as="alternateBounds"/>
                    </mxGeometry>
                </mxCell>
                <mxCell id="YYSCi0fAd2vtNo2rT3h2-13" value="" style="shape=tableRow;horizontal=0;startSize=0;swimlaneHead=0;swimlaneBody=0;strokeColor=inherit;top=0;left=0;bottom=0;right=0;collapsible=0;dropTarget=0;fillColor=none;points=[[0,0.5],[1,0.5]];portConstraint=eastwest;" parent="YYSCi0fAd2vtNo2rT3h2-3" vertex="1">
                    <mxGeometry y="120" width="120" height="40" as="geometry"/>
                </mxCell>
                <mxCell id="YYSCi0fAd2vtNo2rT3h2-14" value="3" style="shape=partialRectangle;html=1;whiteSpace=wrap;connectable=0;strokeColor=inherit;overflow=hidden;fillColor=none;top=0;left=0;bottom=0;right=0;pointerEvents=1;" parent="YYSCi0fAd2vtNo2rT3h2-13" vertex="1">
                    <mxGeometry width="60" height="40" as="geometry">
                        <mxRectangle width="60" height="40" as="alternateBounds"/>
                    </mxGeometry>
                </mxCell>
                <mxCell id="YYSCi0fAd2vtNo2rT3h2-15" value="" style="shape=partialRectangle;html=1;whiteSpace=wrap;connectable=0;strokeColor=inherit;overflow=hidden;fillColor=none;top=0;left=0;bottom=0;right=0;pointerEvents=1;" parent="YYSCi0fAd2vtNo2rT3h2-13" vertex="1">
                    <mxGeometry x="60" width="60" height="40" as="geometry">
                        <mxRectangle width="60" height="40" as="alternateBounds"/>
                    </mxGeometry>
                </mxCell>
                <mxCell id="YYSCi0fAd2vtNo2rT3h2-16" value="" style="shape=tableRow;horizontal=0;startSize=0;swimlaneHead=0;swimlaneBody=0;strokeColor=inherit;top=0;left=0;bottom=0;right=0;collapsible=0;dropTarget=0;fillColor=none;points=[[0,0.5],[1,0.5]];portConstraint=eastwest;" parent="YYSCi0fAd2vtNo2rT3h2-3" vertex="1">
                    <mxGeometry y="160" width="120" height="40" as="geometry"/>
                </mxCell>
                <mxCell id="YYSCi0fAd2vtNo2rT3h2-17" value="4" style="shape=partialRectangle;html=1;whiteSpace=wrap;connectable=0;strokeColor=inherit;overflow=hidden;fillColor=none;top=0;left=0;bottom=0;right=0;pointerEvents=1;" parent="YYSCi0fAd2vtNo2rT3h2-16" vertex="1">
                    <mxGeometry width="60" height="40" as="geometry">
                        <mxRectangle width="60" height="40" as="alternateBounds"/>
                    </mxGeometry>
                </mxCell>
                <mxCell id="YYSCi0fAd2vtNo2rT3h2-18" value="" style="shape=partialRectangle;html=1;whiteSpace=wrap;connectable=0;strokeColor=inherit;overflow=hidden;fillColor=none;top=0;left=0;bottom=0;right=0;pointerEvents=1;" parent="YYSCi0fAd2vtNo2rT3h2-16" vertex="1">
                    <mxGeometry x="60" width="60" height="40" as="geometry">
                        <mxRectangle width="60" height="40" as="alternateBounds"/>
                    </mxGeometry>
                </mxCell>
                <mxCell id="YYSCi0fAd2vtNo2rT3h2-19" value="" style="shape=tableRow;horizontal=0;startSize=0;swimlaneHead=0;swimlaneBody=0;strokeColor=inherit;top=0;left=0;bottom=0;right=0;collapsible=0;dropTarget=0;fillColor=none;points=[[0,0.5],[1,0.5]];portConstraint=eastwest;" parent="YYSCi0fAd2vtNo2rT3h2-3" vertex="1">
                    <mxGeometry y="200" width="120" height="40" as="geometry"/>
                </mxCell>
                <mxCell id="YYSCi0fAd2vtNo2rT3h2-20" value="" style="shape=partialRectangle;html=1;whiteSpace=wrap;connectable=0;strokeColor=inherit;overflow=hidden;fillColor=none;top=0;left=0;bottom=0;right=0;pointerEvents=1;" parent="YYSCi0fAd2vtNo2rT3h2-19" vertex="1">
                    <mxGeometry width="60" height="40" as="geometry">
                        <mxRectangle width="60" height="40" as="alternateBounds"/>
                    </mxGeometry>
                </mxCell>
                <mxCell id="YYSCi0fAd2vtNo2rT3h2-21" value="" style="shape=partialRectangle;html=1;whiteSpace=wrap;connectable=0;strokeColor=inherit;overflow=hidden;fillColor=none;top=0;left=0;bottom=0;right=0;pointerEvents=1;" parent="YYSCi0fAd2vtNo2rT3h2-19" vertex="1">
                    <mxGeometry x="60" width="60" height="40" as="geometry">
                        <mxRectangle width="60" height="40" as="alternateBounds"/>
                    </mxGeometry>
                </mxCell>
                <mxCell id="YYSCi0fAd2vtNo2rT3h2-22" value="" style="shape=tableRow;horizontal=0;startSize=0;swimlaneHead=0;swimlaneBody=0;strokeColor=inherit;top=0;left=0;bottom=0;right=0;collapsible=0;dropTarget=0;fillColor=none;points=[[0,0.5],[1,0.5]];portConstraint=eastwest;" parent="YYSCi0fAd2vtNo2rT3h2-3" vertex="1">
                    <mxGeometry y="240" width="120" height="40" as="geometry"/>
                </mxCell>
                <mxCell id="YYSCi0fAd2vtNo2rT3h2-23" value="" style="shape=partialRectangle;html=1;whiteSpace=wrap;connectable=0;strokeColor=inherit;overflow=hidden;fillColor=none;top=0;left=0;bottom=0;right=0;pointerEvents=1;" parent="YYSCi0fAd2vtNo2rT3h2-22" vertex="1">
                    <mxGeometry width="60" height="40" as="geometry">
                        <mxRectangle width="60" height="40" as="alternateBounds"/>
                    </mxGeometry>
                </mxCell>
                <mxCell id="YYSCi0fAd2vtNo2rT3h2-24" value="" style="shape=partialRectangle;html=1;whiteSpace=wrap;connectable=0;strokeColor=inherit;overflow=hidden;fillColor=none;top=0;left=0;bottom=0;right=0;pointerEvents=1;" parent="YYSCi0fAd2vtNo2rT3h2-22" vertex="1">
                    <mxGeometry x="60" width="60" height="40" as="geometry">
                        <mxRectangle width="60" height="40" as="alternateBounds"/>
                    </mxGeometry>
                </mxCell>
                <mxCell id="YYSCi0fAd2vtNo2rT3h2-25" value="" style="shape=tableRow;horizontal=0;startSize=0;swimlaneHead=0;swimlaneBody=0;strokeColor=inherit;top=0;left=0;bottom=0;right=0;collapsible=0;dropTarget=0;fillColor=none;points=[[0,0.5],[1,0.5]];portConstraint=eastwest;" parent="YYSCi0fAd2vtNo2rT3h2-3" vertex="1">
                    <mxGeometry y="280" width="120" height="40" as="geometry"/>
                </mxCell>
                <mxCell id="YYSCi0fAd2vtNo2rT3h2-26" value="" style="shape=partialRectangle;html=1;whiteSpace=wrap;connectable=0;strokeColor=inherit;overflow=hidden;fillColor=none;top=0;left=0;bottom=0;right=0;pointerEvents=1;" parent="YYSCi0fAd2vtNo2rT3h2-25" vertex="1">
                    <mxGeometry width="60" height="40" as="geometry">
                        <mxRectangle width="60" height="40" as="alternateBounds"/>
                    </mxGeometry>
                </mxCell>
                <mxCell id="YYSCi0fAd2vtNo2rT3h2-27" value="" style="shape=partialRectangle;html=1;whiteSpace=wrap;connectable=0;strokeColor=inherit;overflow=hidden;fillColor=none;top=0;left=0;bottom=0;right=0;pointerEvents=1;" parent="YYSCi0fAd2vtNo2rT3h2-25" vertex="1">
                    <mxGeometry x="60" width="60" height="40" as="geometry">
                        <mxRectangle width="60" height="40" as="alternateBounds"/>
                    </mxGeometry>
                </mxCell>
                <mxCell id="YYSCi0fAd2vtNo2rT3h2-28" value="cantidad numeros = 4" style="rounded=0;whiteSpace=wrap;html=1;" parent="1" vertex="1">
                    <mxGeometry x="200" y="240" width="80" height="40" as="geometry"/>
                </mxCell>
                <mxCell id="YYSCi0fAd2vtNo2rT3h2-35" style="edgeStyle=orthogonalEdgeStyle;rounded=0;orthogonalLoop=1;jettySize=auto;html=1;" parent="1" source="YYSCi0fAd2vtNo2rT3h2-29" target="YYSCi0fAd2vtNo2rT3h2-32" edge="1">
                    <mxGeometry relative="1" as="geometry"/>
                </mxCell>
                <mxCell id="YYSCi0fAd2vtNo2rT3h2-29" value="CantidadNumeros" style="shape=parallelogram;html=1;strokeWidth=2;perimeter=parallelogramPerimeter;whiteSpace=wrap;rounded=1;arcSize=12;size=0.23;" parent="1" vertex="1">
                    <mxGeometry x="470" y="354" width="180" height="60" as="geometry"/>
                </mxCell>
                <mxCell id="YYSCi0fAd2vtNo2rT3h2-31" value="contador = 0" style="rounded=0;whiteSpace=wrap;html=1;" parent="1" vertex="1">
                    <mxGeometry x="200" y="314" width="80" height="40" as="geometry"/>
                </mxCell>
                <mxCell id="YYSCi0fAd2vtNo2rT3h2-36" value="No" style="edgeStyle=orthogonalEdgeStyle;rounded=0;orthogonalLoop=1;jettySize=auto;html=1;" parent="1" source="YYSCi0fAd2vtNo2rT3h2-32" target="YYSCi0fAd2vtNo2rT3h2-34" edge="1">
                    <mxGeometry relative="1" as="geometry"/>
                </mxCell>
                <mxCell id="YYSCi0fAd2vtNo2rT3h2-41" style="edgeStyle=orthogonalEdgeStyle;rounded=0;orthogonalLoop=1;jettySize=auto;html=1;" parent="1" source="YYSCi0fAd2vtNo2rT3h2-32" target="YYSCi0fAd2vtNo2rT3h2-40" edge="1">
                    <mxGeometry relative="1" as="geometry">
                        <Array as="points">
                            <mxPoint x="320" y="550"/>
                        </Array>
                    </mxGeometry>
                </mxCell>
                <mxCell id="YYSCi0fAd2vtNo2rT3h2-32" value="contador &amp;gt; CantidadNumeros" style="strokeWidth=2;html=1;shape=mxgraph.flowchart.decision;whiteSpace=wrap;" parent="1" vertex="1">
                    <mxGeometry x="485" y="480" width="150" height="140" as="geometry"/>
                </mxCell>
                <mxCell id="YYSCi0fAd2vtNo2rT3h2-38" style="edgeStyle=orthogonalEdgeStyle;rounded=0;orthogonalLoop=1;jettySize=auto;html=1;" parent="1" source="YYSCi0fAd2vtNo2rT3h2-34" target="YYSCi0fAd2vtNo2rT3h2-37" edge="1">
                    <mxGeometry relative="1" as="geometry"/>
                </mxCell>
                <mxCell id="YYSCi0fAd2vtNo2rT3h2-34" value="n[contador]" style="shape=parallelogram;html=1;strokeWidth=2;perimeter=parallelogramPerimeter;whiteSpace=wrap;rounded=1;arcSize=12;size=0.23;" parent="1" vertex="1">
                    <mxGeometry x="740" y="520" width="100" height="60" as="geometry"/>
                </mxCell>
                <mxCell id="YYSCi0fAd2vtNo2rT3h2-39" style="edgeStyle=orthogonalEdgeStyle;rounded=0;orthogonalLoop=1;jettySize=auto;html=1;" parent="1" source="YYSCi0fAd2vtNo2rT3h2-37" target="YYSCi0fAd2vtNo2rT3h2-32" edge="1">
                    <mxGeometry relative="1" as="geometry"/>
                </mxCell>
                <mxCell id="YYSCi0fAd2vtNo2rT3h2-37" value="contador = contador + 1" style="rounded=1;whiteSpace=wrap;html=1;absoluteArcSize=1;arcSize=14;strokeWidth=2;" parent="1" vertex="1">
                    <mxGeometry x="740" y="640" width="100" height="40" as="geometry"/>
                </mxCell>
                <mxCell id="YYSCi0fAd2vtNo2rT3h2-40" value="" style="swimlane;startSize=0;" parent="1" vertex="1">
                    <mxGeometry x="220" y="580" width="200" height="200" as="geometry"/>
                </mxCell>
                <mxCell id="YYSCi0fAd2vtNo2rT3h2-42" value="Algoritmo de ordenamiento" style="text;html=1;align=center;verticalAlign=middle;resizable=0;points=[];autosize=1;strokeColor=none;fillColor=none;" parent="YYSCi0fAd2vtNo2rT3h2-40" vertex="1">
                    <mxGeometry x="15" y="20" width="170" height="30" as="geometry"/>
                </mxCell>
            </root>
        </mxGraphModel>
    </diagram>
</mxfile>